<svg xmlns="http://www.w3.org/2000/svg" viewBox="0 0 32 32" width="32" height="32" role="img" aria-label="ephemera">
  <circle cx="16" cy="16" r="16" fill="#18181b"/>
  <g transform="translate(8.9624 22.5000) scale(0.024436 -0.024436)">
    <path d="M294 -12C411 -12 498 54 526 153L416 160C399 110 357 79 295 79C210 79 157 131 152 235H534V262C534 441 436 544 291 544C139 544 42 434 42 266C42 98 139 -12 294 -12ZM152 315C164 405 215 454 291 454C363 454 415 409 422 315Z" fill="#fafafa"/>
  </g>
</svg>
